<svg width="383" height="539" viewBox="0 0 383 539" fill="none" xmlns="http://www.w3.org/2000/svg">
<rect width="383" height="539" rx="15" fill="#333333"/>
<g filter="url(#filter0_d_8_53)">
<rect x="39" y="48" width="308" height="446" rx="20" fill="#535353"/>
<rect x="41" y="50" width="304" height="442" rx="18" stroke="#FFC700" stroke-opacity="0.5" stroke-width="4"/>
</g>
<g filter="url(#filter1_i_8_53)">
<path d="M169.906 85H214.094C215.15 85 216 85.8468 216 86.8987V128.101C216 129.153 215.15 130 214.094 130H169.906C168.85 130 168 129.153 168 128.101V86.8987C168 85.8468 168.85 85 169.906 85V85Z" fill="#2E2E2E"/>
<path d="M242.906 85H287.094C288.15 85 289 85.8468 289 86.8987V128.101C289 129.153 288.15 130 287.094 130H242.906C241.85 130 241 129.153 241 128.101V86.8987C241 85.8468 241.85 85 242.906 85V85Z" fill="#2E2E2E"/>
<path d="M242.906 153H287.094C288.15 153 289 153.847 289 154.899V196.101C289 197.153 288.15 198 287.094 198H242.906C241.85 198 241 197.153 241 196.101V154.899C241 153.847 241.85 153 242.906 153V153Z" fill="#2E2E2E"/>
<path d="M169.906 153H214.094C215.15 153 216 153.847 216 154.899V196.101C216 197.153 215.15 198 214.094 198H169.906C168.85 198 168 197.153 168 196.101V154.899C168 153.847 168.85 153 169.906 153V153Z" fill="#2E2E2E"/>
<path d="M95.9058 153H140.094C141.15 153 142 153.847 142 154.899V196.101C142 197.153 141.15 198 140.094 198H95.9058C94.85 198 94 197.153 94 196.101V154.899C94 153.847 94.85 153 95.9058 153V153Z" fill="#2E2E2E"/>
<path d="M95.9058 85H140.094C141.15 85 142 85.8468 142 86.8987V128.101C142 129.153 141.15 130 140.094 130H95.9058C94.85 130 94 129.153 94 128.101V86.8987C94 85.8468 94.85 85 95.9058 85V85Z" fill="#2E2E2E"/>
</g>
<g filter="url(#filter2_d_8_53)">
<circle cx="193.5" cy="349.5" r="81.5" fill="#B2A282"/>
</g>
<defs>
<filter id="filter0_d_8_53" x="31" y="40" width="332" height="470" filterUnits="userSpaceOnUse" color-interpolation-filters="sRGB">
<feFlood flood-opacity="0" result="BackgroundImageFix"/>
<feColorMatrix in="SourceAlpha" type="matrix" values="0 0 0 0 0 0 0 0 0 0 0 0 0 0 0 0 0 0 127 0" result="hardAlpha"/>
<feMorphology radius="2" operator="dilate" in="SourceAlpha" result="effect1_dropShadow_8_53"/>
<feOffset dx="4" dy="4"/>
<feGaussianBlur stdDeviation="5"/>
<feComposite in2="hardAlpha" operator="out"/>
<feColorMatrix type="matrix" values="0 0 0 0 0 0 0 0 0 0 0 0 0 0 0 0 0 0 0.25 0"/>
<feBlend mode="normal" in2="BackgroundImageFix" result="effect1_dropShadow_8_53"/>
<feBlend mode="normal" in="SourceGraphic" in2="effect1_dropShadow_8_53" result="shape"/>
</filter>
<filter id="filter1_i_8_53" x="94" y="85" width="199" height="117" filterUnits="userSpaceOnUse" color-interpolation-filters="sRGB">
<feFlood flood-opacity="0" result="BackgroundImageFix"/>
<feBlend mode="normal" in="SourceGraphic" in2="BackgroundImageFix" result="shape"/>
<feColorMatrix in="SourceAlpha" type="matrix" values="0 0 0 0 0 0 0 0 0 0 0 0 0 0 0 0 0 0 127 0" result="hardAlpha"/>
<feOffset dx="4" dy="4"/>
<feGaussianBlur stdDeviation="2"/>
<feComposite in2="hardAlpha" operator="arithmetic" k2="-1" k3="1"/>
<feColorMatrix type="matrix" values="0 0 0 0 0 0 0 0 0 0 0 0 0 0 0 0 0 0 0.25 0"/>
<feBlend mode="normal" in2="shape" result="effect1_innerShadow_8_53"/>
</filter>
<filter id="filter2_d_8_53" x="112" y="268" width="171" height="171" filterUnits="userSpaceOnUse" color-interpolation-filters="sRGB">
<feFlood flood-opacity="0" result="BackgroundImageFix"/>
<feColorMatrix in="SourceAlpha" type="matrix" values="0 0 0 0 0 0 0 0 0 0 0 0 0 0 0 0 0 0 127 0" result="hardAlpha"/>
<feOffset dx="4" dy="4"/>
<feGaussianBlur stdDeviation="2"/>
<feComposite in2="hardAlpha" operator="out"/>
<feColorMatrix type="matrix" values="0 0 0 0 0 0 0 0 0 0 0 0 0 0 0 0 0 0 0.25 0"/>
<feBlend mode="normal" in2="BackgroundImageFix" result="effect1_dropShadow_8_53"/>
<feBlend mode="normal" in="SourceGraphic" in2="effect1_dropShadow_8_53" result="shape"/>
</filter>
</defs>
</svg>
